TITLE ""
FILE "P1Q_t_1088-1096.mp3" MP3
  TRACK 01 AUDIO
    TITLE "P1Q_t_1088-1096_01"
    INDEX 01 00:00:00
  TRACK 02 AUDIO
    TITLE "P1Q_t_1088-1096_02"
    INDEX 01 00:01:25
  TRACK 03 AUDIO
    TITLE "P1Q_t_1088-1096_03"
    INDEX 01 00:01:47
  TRACK 04 AUDIO
    TITLE "P1Q_t_1088-1096_04"
    INDEX 01 00:03:07
  TRACK 05 AUDIO
    TITLE "P1Q_t_1088-1096_05"
    INDEX 01 00:03:26
  TRACK 06 AUDIO
    TITLE "P1Q_t_1088-1096_06"
    INDEX 01 00:07:44
  TRACK 07 AUDIO
    TITLE "P1Q_t_1088-1096_07"
    INDEX 01 00:08:14
  TRACK 08 AUDIO
    TITLE "P1Q_t_1088-1096_08"
    INDEX 01 00:09:31
  TRACK 09 AUDIO
    TITLE "P1Q_t_1088-1096_09"
    INDEX 01 00:09:50
  TRACK 10 AUDIO
    TITLE "P1Q_t_1088-1096_10"
    INDEX 01 00:12:04
  TRACK 11 AUDIO
    TITLE "P1Q_t_1088-1096_11"
    INDEX 01 00:12:21
  TRACK 12 AUDIO
    TITLE "P1Q_t_1088-1096_12"
    INDEX 01 00:17:38
  TRACK 13 AUDIO
    TITLE "P1Q_t_1088-1096_13"
    INDEX 01 00:18:08
  TRACK 14 AUDIO
    TITLE "P1Q_t_1088-1096_14"
    INDEX 01 00:19:29
  TRACK 15 AUDIO
    TITLE "P1Q_t_1088-1096_15"
    INDEX 01 00:19:49
  TRACK 16 AUDIO
    TITLE "P1Q_t_1088-1096_16"
    INDEX 01 00:23:11
  TRACK 17 AUDIO
    TITLE "P1Q_t_1088-1096_17"
    INDEX 01 00:23:33
  TRACK 18 AUDIO
    TITLE "P1Q_t_1088-1096_18"
    INDEX 01 00:27:31
  TRACK 19 AUDIO
    TITLE "P1Q_t_1088-1096_19"
    INDEX 01 00:28:01
  TRACK 20 AUDIO
    TITLE "P1Q_t_1088-1096_20"
    INDEX 01 00:29:14
  TRACK 21 AUDIO
    TITLE "P1Q_t_1088-1096_21"
    INDEX 01 00:29:37
  TRACK 22 AUDIO
    TITLE "P1Q_t_1088-1096_22"
    INDEX 01 00:32:02
  TRACK 23 AUDIO
    TITLE "P1Q_t_1088-1096_23"
    INDEX 01 00:32:22
  TRACK 24 AUDIO
    TITLE "P1Q_t_1088-1096_24"
    INDEX 01 00:36:65
  TRACK 25 AUDIO
    TITLE "P1Q_t_1088-1096_25"
    INDEX 01 00:37:37
  TRACK 26 AUDIO
    TITLE "P1Q_t_1088-1096_26"
    INDEX 01 00:38:62
  TRACK 27 AUDIO
    TITLE "P1Q_t_1088-1096_27"
    INDEX 01 00:39:08
  TRACK 28 AUDIO
    TITLE "P1Q_t_1088-1096_28"
    INDEX 01 00:40:29
  TRACK 29 AUDIO
    TITLE "P1Q_t_1088-1096_29"
    INDEX 01 00:40:49
  TRACK 30 AUDIO
    TITLE "P1Q_t_1088-1096_30"
    INDEX 01 00:45:15
  TRACK 31 AUDIO
    TITLE "P1Q_t_1088-1096_31"
    INDEX 01 00:45:62
  TRACK 32 AUDIO
    TITLE "P1Q_t_1088-1096_32"
    INDEX 01 00:47:02
  TRACK 33 AUDIO
    TITLE "P1Q_t_1088-1096_33"
    INDEX 01 00:47:24
  TRACK 34 AUDIO
    TITLE "P1Q_t_1088-1096_34"
    INDEX 01 00:49:60
  TRACK 35 AUDIO
    TITLE "P1Q_t_1088-1096_35"
    INDEX 01 00:50:04
  TRACK 36 AUDIO
    TITLE "P1Q_t_1088-1096_36"
    INDEX 01 00:54:16
  TRACK 37 AUDIO
    TITLE "P1Q_t_1088-1096_37"
    INDEX 01 00:54:61
  TRACK 38 AUDIO
    TITLE "P1Q_t_1088-1096_38"
    INDEX 01 00:55:68
  TRACK 39 AUDIO
    TITLE "P1Q_t_1088-1096_39"
    INDEX 01 00:56:38
  TRACK 40 AUDIO
    TITLE "P1Q_t_1088-1096_40"
    INDEX 01 00:57:47
  TRACK 41 AUDIO
    TITLE "P1Q_t_1088-1096_41"
    INDEX 01 00:57:69
  TRACK 42 AUDIO
    TITLE "P1Q_t_1088-1096_42"
    INDEX 01 00:59:74
  TRACK 43 AUDIO
    TITLE "P1Q_t_1088-1096_43"
    INDEX 01 01:00:18
  TRACK 44 AUDIO
    TITLE "P1Q_t_1088-1096_44"
    INDEX 01 01:04:73
  TRACK 45 AUDIO
    TITLE "P1Q_t_1088-1096_45"
    INDEX 01 01:05:41
  TRACK 46 AUDIO
    TITLE "P1Q_t_1088-1096_46"
    INDEX 01 01:06:56
  TRACK 47 AUDIO
    TITLE "P1Q_t_1088-1096_47"
    INDEX 01 01:07:01
  TRACK 48 AUDIO
    TITLE "P1Q_t_1088-1096_48"
    INDEX 01 01:09:31
  TRACK 49 AUDIO
    TITLE "P1Q_t_1088-1096_49"
    INDEX 01 01:09:51
  TRACK 50 AUDIO
    TITLE "P1Q_t_1088-1096_50"
    INDEX 01 01:14:64
  TRACK 51 AUDIO
    TITLE "P1Q_t_1088-1096_51"
    INDEX 01 01:15:34
  TRACK 52 AUDIO
    TITLE "P1Q_t_1088-1096_52"
    INDEX 01 01:16:70
  TRACK 53 AUDIO
    TITLE "P1Q_t_1088-1096_53"
    INDEX 01 01:17:15
  TRACK 54 AUDIO
    TITLE "P1Q_t_1088-1096_54"
    INDEX 01 01:18:52
  TRACK 55 AUDIO
    TITLE "P1Q_t_1088-1096_55"
    INDEX 01 01:18:71
  TRACK 56 AUDIO
    TITLE "P1Q_t_1088-1096_56"
    INDEX 01 01:22:73
